<?xml version="1.0" encoding="utf-8"?>
<!-- Generator: Adobe Illustrator 21.0.0, SVG Export Plug-In . SVG Version: 6.00 Build 0)  -->
<svg version="1.1" id="图层_1" xmlns="http://www.w3.org/2000/svg" xmlns:xlink="http://www.w3.org/1999/xlink" x="0px" y="0px"
	 viewBox="0 0 200 200" style="enable-background:new 0 0 200 200;" xml:space="preserve">
<style type="text/css">
	.st0{fill-rule:evenodd;clip-rule:evenodd;fill:#686767;}
	.st1{fill-rule:evenodd;clip-rule:evenodd;fill:#FF6666;}
</style>
<g>
	<path class="st0" d="M100,100L100,100z M3.8,100c0,34.4,18.3,66.1,48.1,83.3c29.8,17.2,66.4,17.2,96.2,0
		c29.8-17.2,48.1-48.9,48.1-83.3c0-53.1-43-96.2-96.2-96.2C46.9,3.8,3.8,46.9,3.8,100"/>
	<path class="st1" d="M100,200C44.9,200,0,155.1,0,100C0,44.9,44.9,0,100,0c55.1,0,100,44.9,100,100C200,155.1,155.1,200,100,200
		L100,200z M100,7.7C49.1,7.7,7.7,49.1,7.7,100c0,50.9,41.4,92.3,92.3,92.3c50.9,0,92.3-41.4,92.3-92.3
		C192.3,49.1,150.9,7.7,100,7.7L100,7.7z"/>
	<path class="st1" d="M87.5,100.6v11.2h24.8v-11.2h6.9v11.2h23.9v6.7h-23.7v25.7h-6.9v-25.7H87.1c-1.2,11.5-6.6,20-16.1,25.9
		l-5.1-4.6c8.3-4.6,13.1-11.7,14.2-21.2H56.9v-6.7h23.7v-11.2H87.5L87.5,100.6z M135.3,97.4l-5.7,4.1c-1.9-2.8-4.1-5.8-6.6-9
		c-17.7,2.1-35.9,3.5-54.5,4.2l-1.8-5.3c7.4-5.3,13.8-12,19.3-19.8H60.6V65h37.2c-1.4-3-2.8-5.7-4.2-8.1l7.3-1.2
		c1.4,2.8,2.8,6,4.1,9.4h34.5v6.6H93.5c-4.6,7.3-9.9,13.6-16.1,18.8c14.2-0.5,28-1.6,41.4-3.2c-2.7-3-5.3-5.8-8-9l5.7-3.4
		C124.5,83.4,130.9,91.1,135.3,97.4L135.3,97.4z"/>
</g>
</svg>
