<?xml version="1.0" encoding="utf-8"?>
<!-- Generator: Adobe Illustrator 21.0.0, SVG Export Plug-In . SVG Version: 6.00 Build 0)  -->
<svg version="1.1" id="图层_1" xmlns="http://www.w3.org/2000/svg" xmlns:xlink="http://www.w3.org/1999/xlink" x="0px" y="0px"
	 viewBox="0 0 200 200" style="enable-background:new 0 0 200 200;" xml:space="preserve">
<style type="text/css">
	.st0{fill-rule:evenodd;clip-rule:evenodd;fill:#939393;}
	.st1{fill-rule:evenodd;clip-rule:evenodd;fill:#DDC173;}
</style>
<g>
	<path class="st0" d="M156.5,14.4l28.7,28.7l5-33.7L156.5,14.4L156.5,14.4z M166.2,174.8c-1.9,1.8-2.9,4.3-2.8,6.9
		c0,2.6,1,5,2.8,6.9s4.3,2.8,6.9,2.8c2.6,0,5-1,6.9-2.8c3.8-3.8,3.8-9.9,0-13.7c-1.9-1.8-4.3-2.8-6.9-2.8S168.1,172.9,166.2,174.8
		L166.2,174.8z M28.2,27c0-2.6-1-5-2.9-6.9c-1.8-1.8-4.3-2.8-6.9-2.8c-2.6,0-5,1-6.9,2.8c-3.8,3.8-3.8,9.9,0,13.7
		c1.9,1.8,4.3,2.8,6.9,2.8c2.6,0,5-1,6.9-2.8C27.2,32,28.2,29.6,28.2,27L28.2,27z"/>
	<path class="st1" d="M0.3,161.6c-0.9,2.2,0.2,4.7,2.4,5.7l21.2,8.6l8.6,21.2c0.7,1.7,2.3,2.7,4,2.7c0.6,0,1.1-0.1,1.6-0.3
		c2.2-0.9,3.3-3.4,2.4-5.7l-8.2-20.2l9.4-9.4l6.8,16.8c0.7,1.7,2.3,2.7,4,2.7c0.6,0,1.1-0.1,1.6-0.3c2.2-0.9,3.3-3.4,2.4-5.7
		l-8.2-20.2l46.9-46.9l61.9,61.9c-1.6,2.8-2.5,5.9-2.5,9.2c0,4.9,1.9,9.5,5.4,13c3.5,3.5,8.1,5.4,13,5.4s9.5-1.9,13-5.4
		c6.8-6.8,7.1-17.7,1-24.9c3.5-13.9,1.1-31.2-7-50.4c-8.1-19.1-21.2-38.3-37.9-55.7L167.8,38l17.4,17.4c0.8,0.8,1.9,1.3,3.1,1.3
		c0.4,0,0.9-0.1,1.4-0.2c1.6-0.5,2.7-1.9,2.9-3.5l7-48c0.2-1.3-0.3-2.7-1.2-3.7c-1-1-2.3-1.4-3.7-1.2l-48,7.1
		c-1.6,0.2-3,1.4-3.5,2.9c-0.5,1.5-0.1,3.3,1.1,4.4l17.4,17.4L136,57.5c-17.5-16.8-36.7-29.9-55.8-38c-19.1-8.1-36.5-10.5-50.3-7
		c-3.2-2.6-7.2-4-11.4-4c-4.9,0-9.5,1.9-13,5.4c-7.2,7.2-7.2,18.8,0,26c3.5,3.5,8.1,5.4,13,5.4c3.3,0,6.4-0.9,9.2-2.5l61.4,61.4
		l-46.9,46.9l-20.2-8.2c-2.2-0.9-4.8,0.2-5.7,2.4c-0.9,2.2,0.2,4.8,2.4,5.7l16.8,6.8l-9.4,9.4L6,159.2
		C3.7,158.3,1.2,159.4,0.3,161.6L0.3,161.6z M185.2,43.2l-28.7-28.7l33.7-5L185.2,43.2L185.2,43.2z M95.2,98.2L34,36.9
		c0.8-1.2,1.4-2.5,1.9-3.8c24.5,2.3,54.9,18.7,80.9,43.7L95.2,98.2L95.2,98.2z M25.3,20.1c1.8,1.9,2.9,4.3,2.9,6.9
		c0,2.6-1,5-2.8,6.9c-1.9,1.8-4.3,2.8-6.9,2.8c-2.6,0-5-1-6.9-2.8c-3.8-3.8-3.8-9.9,0-13.7c1.9-1.8,4.3-2.8,6.9-2.8
		S23.5,18.3,25.3,20.1L25.3,20.1z M172,122.7c6.6,15.6,9.1,30.1,7.3,41.6c-1.3-0.5-2.7-0.8-4.2-1c-2.5-27.6-21-61.5-49.2-89.6
		c-28-28-61.8-46.5-89.2-49.2c-0.2-1.5-0.6-2.9-1.1-4.3C47,18.5,61.3,21,76.8,27.6c19.2,8.2,38.7,21.7,56.1,39.2
		C150.4,84.1,163.9,103.5,172,122.7L172,122.7z M166.2,188.5c-1.9-1.8-2.9-4.3-2.8-6.9c0-2.6,1-5,2.8-6.9c1.8-1.8,4.3-2.8,6.9-2.8
		c2.6,0,5,1,6.9,2.8c3.8,3.8,3.8,9.9,0,13.7c-1.9,1.8-4.3,2.8-6.9,2.8S168.1,190.3,166.2,188.5L166.2,188.5z M163.2,166.1
		l-61.8-61.8l21.4-21.4c25.2,26.3,41.6,56.9,43.7,81.5C165.4,164.9,164.2,165.5,163.2,166.1L163.2,166.1z"/>
</g>
</svg>
